<svg id="Layer_1" data-name="Layer 1" xmlns="http://www.w3.org/2000/svg" viewBox="0 0 500 500"><defs><style>.cls-1{fill:#c5c5c5;}.cls-2{fill:#fff;}</style></defs><rect class="cls-1" width="500" height="500"/><path class="cls-2" d="M417.29,427.88c-5.77-34.81-21.09-64.91-45.54-90.28a168.66,168.66,0,0,0-203.18-30.14,166.49,166.49,0,0,0-65.06,64.47c-15.13,26.74-22.85,55.51-21.87,86.31.4,12.41,6.11,22.58,15.35,30.92,6.87,6.19,15.11,9.12,23.84,11.18H380.18a27.58,27.58,0,0,1,2.74-.81c18.1-3.35,32.9-18.23,35.84-36.33C420.68,451.35,419.22,439.56,417.29,427.88Z"/><path class="cls-2" d="M250.38,263.59c52.77.1,95.66-42.69,95.91-95.67.25-52.57-42.87-95.8-95.66-95.92S155,114.67,154.72,167.68C154.43,220.23,197.58,263.49,250.38,263.59Z"/></svg>